<svg width="351" height="216" viewBox="0 0 351 216" fill="none" xmlns="http://www.w3.org/2000/svg">
<circle cx="344.5" cy="154.5" r="6.5" fill="#0DCD15"/>
<circle cx="344.5" cy="175.5" r="6.5" fill="#0DCD15"/>
<circle cx="331.5" cy="196.5" r="6.5" fill="#0DCD15"/>
<circle cx="306.5" cy="196.5" r="6.5" fill="#0DCD15"/>
<circle cx="279.5" cy="196.5" r="6.5" fill="#0DCD15"/>
<circle cx="252.5" cy="199.5" r="6.5" fill="#0DCD15"/>
<circle cx="227.5" cy="202.5" r="6.5" fill="#0DCD15"/>
<circle cx="202.5" cy="202.5" r="6.5" fill="#0DCD15"/>
<circle cx="175.5" cy="206.5" r="6.5" fill="#0DCD15"/>
<circle cx="150.5" cy="206.5" r="6.5" fill="#0DCD15"/>
<circle cx="125.5" cy="208.5" r="6.5" fill="#0DCD15"/>
<circle cx="100.5" cy="209.5" r="6.5" fill="#0DCD15"/>
<circle cx="75.5" cy="209.5" r="6.5" fill="#0DCD15"/>
<circle cx="56.5" cy="200.5" r="6.5" fill="#0DCD15"/>
<circle cx="46.5" cy="178.5" r="6.5" fill="#0DCD15"/>
<circle cx="40.5" cy="154.5" r="6.5" fill="#0DCD15"/>
<circle cx="34.5" cy="130.5" r="6.5" fill="#0DCD15"/>
<circle cx="28.5" cy="106.5" r="6.5" fill="#0DCD15"/>
<circle cx="24.5" cy="82.5" r="6.5" fill="#0DCD15"/>
<circle cx="17.5" cy="55.5" r="6.5" fill="#0DCD15"/>
<circle cx="11.5" cy="31.5" r="6.5" fill="#0DCD15"/>
<circle cx="6.5" cy="6.5" r="6.5" fill="#0DCD15"/>
</svg>
